<svg version="1.2" xmlns="http://www.w3.org/2000/svg" viewBox="0 0 750 500" width="750" height="500"><defs><clipPath clipPathUnits="userSpaceOnUse" id="cp1"><path d="m0 0h750v500h-750z"/></clipPath></defs><style>.a{fill:#e84662;stroke:#2a2b29;stroke-miterlimit:10;stroke-width:2.6}.b{fill:#f8f7d9;stroke:#2a2b29;stroke-miterlimit:10;stroke-width:2.6}.c{fill:#2a2b29}.d{fill:#57b793;stroke:#2a2b29;stroke-linecap:round;stroke-linejoin:round;stroke-width:2.6}.e{fill:#f8f7d9}.f{fill:#f3be48}.g{fill:#f3be48;stroke:#2a2b29;stroke-miterlimit:10;stroke-width:2.6}.h{fill:none;stroke:#2a2b29;stroke-linecap:round;stroke-linejoin:round;stroke-width:2.6}</style><g clip-path="url(#cp1)"><path class="a" d="m345.2 151.9c-3.5 5-4.1 11-5.1 17.6-8.8 53.2-32.4 102.7-54.6 151.9-2.3 4.9-4.5 10.5-2.6 15.5 1.2 3 3.7 5.3 6.1 7.4 26.9 22.9 61.2 36.8 96.3 39.3 7.7 0.5 15.6 0.4 22.4-3 5.5-2.8 9.7-7.5 13.3-12.5 6.2-8.6 11.1-18 15.5-27.6 11.7-25.5 20.6-52.4 26.5-79.8 3.3-15.5 5.6-31.3 4.5-47-1.2-15.7-6-31.5-15.8-43.9-10.4-13.1-25.8-21.5-42-25.7-11.1-2.9-22.5-3.9-34-3.8-9.9 0.1-18.9 1-26.9 7.6-1.5 1.2-2.7 2.6-3.6 4z"/><path class="b" d="m354.4 202.9c-0.1 4.9 1.4 9.7 1.5 14.6 0.2 7.9-3.1 15.6-6.7 22.7-2.2 4.3-4.5 9.6-1.8 13.6 1.9 2.9 5.9 3.9 9.3 3.1 3.3-0.8 6.2-3 8.7-5.5 6.3-6.2 11-13.9 14.8-21.9 2.4-5 4.5-10.1 5.2-15.6 0.7-5.5 0-11.3-2.9-15.9-7.6-12.1-27.8-11.9-28.1 4.9z"/><path class="b" d="m408.8 210c-2.7 3.3-3.6 7.7-3.6 12 0 4.3 0.7 8.5 0.7 12.8-0.1 9.3-3.8 18.3-8.2 26.6-1.1 2-2.3 4.2-1.7 6.4 0.6 2.3 3.1 3.8 5.4 3.9 2.4 0.1 4.8-0.8 6.9-2 4-2.1 7.6-5 10.6-8.5 2.2-2.5 4.1-5.3 5.8-8.2 3.8-6.3 7.1-13 8.3-20.2 1.1-6.6 0.6-17.3-4.3-22.7-4.8-5.3-15.1-5.7-19.9-0.1z"/><path class="c" d="m359.1 229.9c-0.2 1.1-0.4 2.4 0.4 3.1 1 0.9 2.6 0.3 3.6-0.5 3.2-2.4 9.8-12.6 4.5-16-5.9-3.6-7.8 10.4-8.5 13.4z"/><path class="c" d="m352.5 244c-0.2 0.9-0.3 2 0.4 2.7 0.5 0.5 1.3 0.6 1.9 0.4 0.7-0.2 1.3-0.7 1.8-1.2 1.7-1.7 2.8-3.9 3.1-6.3 0.3-2.4-1.3-4.5-3.5-2.8-2.1 1.7-3.1 4.7-3.7 7.2z"/><path class="c" d="m408.9 247c0 1 0.1 2.3 1 2.6 0.8 0.3 1.7-0.2 2.3-0.8 2.3-2.2 4.2-4.9 5.4-7.8 0.8-1.8 1.3-3.7 1-5.5-0.7-4.1-4.6-5.5-6.5-1.6-1.9 4-2.8 8.7-3.2 13.1z"/><path class="c" d="m402.9 258.3c-0.3 0.8-0.5 1.8 0 2.5 0.5 0.7 1.5 0.9 2.4 0.5 0.8-0.3 1.4-1 2-1.7 1-1.3 3.7-5.8 1.1-7-2.5-1.1-5 4.1-5.5 5.7z"/><path class="d" d="m350.6 211.2c-1.1-4.4-1.7-9.1-0.9-13.6 0.7-4.5 3-8.9 6.8-11.4 5.6-3.8 12.9-3.4 18.8-0.7 10 4.7 12.4 15.1 14 25 0.2 1 0.3 2.2-0.4 3-7.9-2.4-15.5-3.1-23.7-3.2q-7.3-0.1-14.6 0.9z"/><path class="d" d="m437.4 230.5c-0.2-7.7-0.9-15.6-4.8-22.2-4-6.6-11.8-11.4-19.3-9.5-3.9 1-7.1 3.8-9 7.3-1 1.8-1.7 3.8-2 5.9-0.5 3.2-0.2 3.4 2.7 4.3 11.5 3.5 22.3 7.5 32.4 14.2z"/><path class="c" d="m366.2 318.3c-6-2.5-11.5-6-15.6-8.7-8.5-5.6-19.1-13.4-26.2-24.4-2.6-3.9-6.4-11.4-3.5-18 1.8-4.1 6.3-7.3 13.7-4.2q1.8 0.8 3.6 1.9c2.8 1.8 5.2 4 7.4 6.2q0.7 0.6 1.3 1.2c3.1 2.9 6.3 5.6 9.7 8 4.1 2.9 7.7 5 11.1 6.5q1.9 0.8 3.7 1.3c9.9 3 20.9 1 28.4-0.8l1.2-0.2c3.6-0.9 7.4-1.8 11.5-1.6 2.4 0 4.8 0.6 7 1.5 2.9 1.2 5.2 3.1 6.8 5.5 3.4 5.2 2.8 12.7-1.3 18.2-3 3.9-7.4 6.8-13.6 8.9-6 2-12.6 3-20.2 3.2-6.9 0.1-12.9-0.6-18.4-2.2-2.2-0.6-4.4-1.3-6.6-2.3z"/><path class="e" d="m375.6 299.8c-0.1 0.5-0.2 1.1 0 1.6 0.3 0.6 0.9 0.9 1.5 1.2 2 0.9 4.1 1.5 6.3 1.9 0.5 0.1 1 0.1 1.5-0.1 0.5-0.3 0.7-1 0.9-1.6q1.3-4.5 2.6-9.1c0.6 2.7 0.5 5.5-0.4 8.2-0.2 0.7-0.5 1.6-0.1 2.2 0.3 0.6 1 0.8 1.6 1q2.1 0.5 4.3 0.5c0.8 0.1 1.7 0 2.3-0.5 0.5-0.4 0.7-1.1 0.8-1.7q1.7-5.5 2.9-11.2-0.1 4.8-0.2 9.6c-0.1 0.4-0.1 0.8 0.1 1.2 0.4 0.8 1.6 1 2.6 1 1.6 0.1 3.4 0.1 4.5-1.1 0.8-0.8 1.1-1.9 1.3-3q1.2-5.1 1.6-10.4-11.7 0.2-23.5 0.4-3.1 0-6.3 0.1c-2.4 0-3.4 0.7-3.7 3-0.2 2.2-0.1 4.5-0.6 6.8z"/><path class="f" d="m389.8 328.7c-6.9 0-13-0.8-18.6-2.4-2.4-0.6-4.9-1.5-7.3-2.5-6.5-2.8-12.3-6.4-16.6-9.3-8.9-5.9-20.2-14.2-27.9-26.1-5.5-8.4-6.9-16.8-3.9-23.6 2.4-5.6 7.5-9 13.5-9 2.5 0 5.2 0.6 7.9 1.8q2.2 0.9 4.5 2.3c3.3 2.1 5.9 4.7 8.3 6.9q0.6 0.6 1.3 1.2c2.8 2.7 5.9 5.2 9.1 7.5 3.7 2.7 6.9 4.6 9.9 5.8q1.6 0.7 3.1 1.1c2.9 0.9 6 1.3 9.5 1.3 4.5 0 9.7-0.7 15.8-2.1l1.2-0.3c3.6-0.8 7.5-1.8 12-1.8q0.6 0 1.2 0c3.1 0.2 6.2 0.8 9 2 4 1.7 7.2 4.4 9.5 7.8 4.7 7.4 4.1 17.4-1.6 24.9-3.7 4.9-9.1 8.5-16.4 11-6.6 2.2-13.8 3.4-22 3.5q-0.7 0-1.5 0 0 0 0 0zm-60.7-61c-1.4 0-2.2 0.5-2.8 1.8-1.8 4.3 1.5 10.1 3 12.5 6.6 10 16.6 17.4 24.5 22.7 3.9 2.6 9.1 5.8 14.7 8.2q3 1.2 5.9 2c4.6 1.3 9.6 2 15.4 2q0.7 0 1.3 0c7-0.2 13-1.1 18.4-2.9 5-1.7 8.5-4 10.7-6.9 2.7-3.5 3.2-8.2 1.1-11.4-0.9-1.4-2.3-2.5-4.1-3.3-1.5-0.6-3.2-1-4.9-1q-0.4-0.1-0.7-0.1c-3.1 0-6.2 0.8-9.2 1.5l-1.3 0.3c-7.1 1.7-13 2.4-18.4 2.4-4.7 0-9.1-0.6-13-1.7q-2.1-0.7-4.3-1.6c-3.8-1.6-7.8-3.9-12.2-7.1-3.6-2.6-7.1-5.4-10.3-8.5q-0.7-0.6-1.4-1.2c-2.1-2.1-4.1-4-6.5-5.5-0.9-0.6-1.8-1.1-2.7-1.4q-1.9-0.8-3.2-0.8z"/><path class="c" d="m329 254.5c-6.5 0-12.1 3.8-14.7 9.8-3.1 7.2-1.7 16 4 24.8 7.9 12.1 19.2 20.5 28.3 26.5 4.4 2.9 10.2 6.6 16.8 9.4 2.5 1 5 1.9 7.4 2.6 5.8 1.6 12 2.4 19 2.4q0.8 0 1.6 0c8.3-0.1 15.6-1.3 22.3-3.6 7.6-2.5 13.2-6.3 17-11.4 6.1-8 6.7-18.6 1.7-26.4-2.4-3.6-5.9-6.5-10.1-8.3-2.9-1.2-6.2-1.9-9.5-2.1q-0.6 0-1.2 0c-4.6 0-8.7 1-12.3 1.8l-1.2 0.3c-6 1.4-11.1 2.1-15.5 2.1-3.4 0-6.4-0.4-9.1-1.2q-1.5-0.5-2.9-1.1c-3-1.2-6.1-3.1-9.7-5.7-3.2-2.2-6.2-4.7-9.1-7.4q-0.6-0.5-1.2-1.1v-0.1c-2.4-2.2-5.1-4.8-8.5-7q-2.4-1.4-4.7-2.4c-2.9-1.3-5.7-1.9-8.4-1.9zm0 2.7c2.2 0 4.7 0.5 7.4 1.6q2.1 0.9 4.3 2.3c3.2 2 5.8 4.5 8.1 6.6q0.6 0.6 1.3 1.2c2.9 2.8 6 5.3 9.2 7.7 3.8 2.7 7.1 4.6 10.2 5.9q1.6 0.7 3.2 1.2c3 0.9 6.2 1.3 9.9 1.3 4.7 0 10-0.7 16.1-2.1l1.2-0.3c3.5-0.8 7.4-1.8 11.7-1.8q0.5 0 1.1 0.1c3 0.1 5.9 0.7 8.5 1.8 3.8 1.6 6.9 4.1 9 7.3 4.4 6.9 3.8 16.3-1.6 23.4-3.5 4.7-8.7 8.2-15.8 10.5-6.4 2.2-13.4 3.3-21.5 3.5q-0.7 0-1.5 0c-6.8 0-12.8-0.8-18.3-2.3-2.3-0.7-4.7-1.5-7.1-2.5-6.4-2.7-12.1-6.3-16.4-9.2-8.8-5.8-19.9-14-27.5-25.7-5.2-8-6.6-16-3.8-22.4 2-4.5 6.3-8.1 12.3-8.1zm60.8 61q0.7 0 1.4 0c6.3-0.1 12.7-0.9 18.7-3 4.4-1.4 8.6-3.7 11.4-7.3 2.8-3.7 3.6-9 1.1-12.9-1.1-1.7-2.8-3-4.7-3.8-1.7-0.7-3.5-1.1-5.3-1.2q-0.4 0-0.8 0c-3.6 0-7.2 1-10.8 1.8-5.9 1.4-12.1 2.4-18.1 2.4-4.3 0-8.5-0.5-12.6-1.7q-2.1-0.6-4.1-1.5c-4.3-1.8-8.3-4.3-12.1-7q-5.3-3.8-10.1-8.3c-2.6-2.4-5.1-5-8.1-6.9-0.8-0.5-1.8-1.1-2.9-1.5-1.3-0.6-2.6-0.9-3.7-0.9-1.7 0-3.1 0.7-4 2.6-1.9 4.4 0.8 10.1 3.1 13.7 6.2 9.5 15.4 16.8 24.9 23.1 4.7 3.1 9.7 6.1 14.9 8.3q2.9 1.2 6 2.1c5.1 1.5 10.5 2 15.8 2zm0-2.6c-5.7 0-10.6-0.7-15.1-1.9q-2.8-0.8-5.7-2c-5.5-2.3-10.6-5.6-14.4-8.1-7.9-5.2-17.8-12.5-24.2-22.3-2.9-4.5-4-8.7-2.9-11.3 0.4-0.8 0.7-1 1.6-1 0.7 0 1.6 0.2 2.7 0.7 0.8 0.3 1.7 0.8 2.5 1.3 2.3 1.5 4.2 3.3 6.3 5.3q0.7 0.6 1.4 1.3c3.3 3.1 6.8 5.9 10.4 8.6 4.5 3.2 8.6 5.6 12.5 7.2q2.2 1 4.4 1.6c4.1 1.2 8.6 1.9 13.4 1.9 5.5 0 11.5-0.8 18.7-2.5q0.7-0.2 1.3-0.3c3.1-0.7 6-1.4 8.9-1.4q0.3 0 0.6 0c1.6 0 3.1 0.4 4.4 0.9q2.4 1 3.6 2.9c2 2.9 1 7.2-1 9.8-2.1 2.7-5.4 4.8-10.1 6.4-5.3 1.8-11.2 2.7-18 2.8q-0.6 0.1-1.3 0.1z"/><path class="g" d="m353.9 128.3c-2.5-0.5-5.2-1-7.6 0-2.9 1.3-4.5 4.8-4.4 8.1 0.1 3.3 1.7 6.3 3.5 9 3.1 4.7 7.2 8.9 11.9 12.1 4.5 3.2 9.6 5.5 14.7 7.5 18.5 7.1 38.3 10.7 58.1 10.4 6.8-0.1 13.8-0.7 20-3.4 6.3-2.6 11.9-7.6 13.8-14.1 0.7-2.2 0.9-4.6 0.1-6.7-2-5.1-8.5-6.3-14-6.9-32.4-3.1-64.2-9.8-96.1-16z"/><path class="g" d="m378.9 109.9c1.8-2.4 3.7-4.8 6.2-6.4 2.5-1.6 5.9-2.2 8.5-0.8 4.4 2.4 5.3 9.4 10.1 10.5 1.9 0.5 4-0.1 5.8-0.9 6.4-2.7 12.6-7.1 19.5-6.4 7.4 0.7 13.1 7.2 16.3 13.9 4.7 10 5.8 21.7 3.2 32.4-0.3 1.3-0.7 2.7-1.6 3.8-1.1 1.3-2.9 2-4.5 2.6-11.8 4-24.8 3.9-37 1.5-12.2-2.5-23.9-7.3-35.1-12.7-3-1.5-6.2-3.1-8-5.9-3.7-5.6 1.6-9.1 4.2-13.4 3.8-6.4 7.8-12.3 12.4-18.2z"/><path class="d" d="m411.8 139.5c7.9 1.5 16 2.6 24 2 5.6-0.5 11.1-1.8 16.2-3.8 0.7-0.3 1.4-0.5 1.9 0 0.2 0.2 0.3 0.6 0.3 0.9 0.6 5.5 1.1 11.5-1.8 16.3-2.2 3.5-6 5.7-9.8 7.3-13.8 5.5-29.5 3.6-44 0.1-3.9-0.9-7.9-2-11.7-3.4-4.1-1.6-8-3.5-11.8-5.6-6.9-3.7-14-8.4-16.4-15.8-0.1-0.4-0.2-0.9-0.2-1.4 0.1-0.6 0.4-1.2 0.7-1.7 1.5-2.5 4.3-10.1 7.9-9.7 1.7 0.2 4.5 2.4 6.2 3.2q3.8 1.6 7.6 3c10.1 3.8 20.5 5.9 30.9 8.6z"/><path class="g" d="m353.1 367.9c6.1-2 13.5-3.7 18.5 0.3 0.6 0.4 1.1 1 1.3 1.6 0.4 1.3-0.3 2.5-1.1 3.5-2.5 2.8-6.1 4.1-9.6 5.3 1.1 3.6 2.3 7.3 1.8 11-0.5 3.7-3.1 7.4-6.9 7.8-4.1 0.5-7.4-3-10.2-6.1q-6-6.8-12.6-13.1c-0.8-0.7-1.6-1.4-2.5-1.7-1-0.4-2-0.3-3-0.2-7.2 0.5-14.3-0.1-21.3-1.9-1.5-0.3-3.1-0.8-4.2-2-1.9-2.1-1.4-5.5 0.3-7.7 1.7-2.2 4.4-3.5 6.9-4.7-0.8-2.1-1.6-4.4-1.5-6.7 0.1-2.3 1.2-4.7 3.4-5.6 3.1-1.3 6.5 1.2 8.8 3.7 5.3 5.7 8.3 12 12.4 18.4 3.8 6.1 14.2-0.2 19.5-1.9z"/><path fill-rule="evenodd" class="h" d="m318.5 365.6c11.6 5.8 23.3 11.5 36 13.6"/><path class="d" d="m324.4 376.7c-0.9 2.1-1 3.9 1.2 5.2 1 0.5 2.4 0.6 3.3 0 0.2 1 0.9 1.9 1.7 2.5 0.9 0.7 1.9 1 2.9 1.4 1.7 0.5 2.9-1.1 3.7-2.4q2.6-4 4.9-8.1c0.9-1.6 3-5 1.8-6.9-0.5-0.7-1.8-1.3-2.6-1.4-0.5-0.2-3.4-0.3-3.5 0.4 0.1-0.7 0-1.5-0.5-2-0.5-0.6-1.3-0.9-2-0.8-0.7 0-1.4 0.4-2 0.9-3.8 2.6-7 7-8.9 11.2z"/><path fill-rule="evenodd" class="h" d="m329 381.7q0.7-1.4 1.4-2.7c0.5-1 1-1.9 1.6-2.8 0.8-1.1 1.7-2.2 2.6-3.2"/><path fill-rule="evenodd" class="h" d="m387 367.1q-1.3 3.1-3.3 5.8"/><path fill-rule="evenodd" class="h" d="m394.8 365.2q-2.5 6.1-5.6 11.9"/><path fill-rule="evenodd" class="h" d="m342.1 209c9.5-3.7 19.9-4.8 30-3.2"/><path fill-rule="evenodd" class="h" d="m421.9 218.2c9.1 2.5 17.4 7.6 23.8 14.5"/><path fill-rule="evenodd" class="h" d="m424.3 262.9q-0.9 3.6-1.7 7.1"/><path fill-rule="evenodd" class="h" d="m431.5 253.9q-2.5 9.8-4.8 19.7"/><path fill-rule="evenodd" class="h" d="m426.8 155.2q-0.1 1.8-0.2 3.6"/><path fill-rule="evenodd" class="h" d="m432.6 148.3q-0.2 6.1-0.4 12.2"/><path fill-rule="evenodd" class="h" d="m439 148c-0.8 3.1-1.1 6.2-1.1 9.4"/><path fill-rule="evenodd" class="h" d="m445.3 148.2q-0.2 3.1-0.3 6.2"/><path fill-rule="evenodd" class="h" d="m323.2 302.4q-1.3 4.8-2.2 9.8"/><path fill-rule="evenodd" class="h" d="m327.9 306.5q-1.7 7.3-2.7 14.8"/></g></svg>