<svg version="1.2" xmlns="http://www.w3.org/2000/svg" viewBox="0 0 750 500" width="750" height="500"><defs><clipPath clipPathUnits="userSpaceOnUse" id="cp1"><path d="m0 0h750v500h-750z"/></clipPath></defs><style>.a{fill:#f3be48;stroke:#2a2b29;stroke-miterlimit:10;stroke-width:2}.b{fill:#57b793;stroke:#2a2b29;stroke-linecap:round;stroke-linejoin:round;stroke-width:2}.c{fill:none;stroke:#2a2b29;stroke-linecap:round;stroke-linejoin:round;stroke-width:2}</style><g clip-path="url(#cp1)"><path class="a" d="m396.1 251.1c-0.2-1.6-0.8-3.3-1.9-4.4-8.5-10.7-13.7-13.7-13.7-13.7l-4.9 13.4q-0.3-0.6-0.8-1.1c-12.1-15.2-14-13.7-14-13.7l-1.9 18.3c8.7 18.2 23.8 27.6 23.8 27.6 5.2-5.5 9.2-12 11.9-19.1 0.9-2.3 1.7-4.8 1.5-7.3z"/><path class="b" d="m379.1 232.2c2.4 0.9 3.8 3.4 4 5.9 0.2 2.5-0.6 5-1.5 7.3-2.7 7.1-6.7 13.6-11.9 19.1-4.2-4.3-7.9-9.3-10.8-14.6-2.4-4.3-4.3-9.1-3.4-13.9 0.2-1.3 0.7-2.7 1.6-3.6 1-0.9 2.5-1.4 3.7-0.8 0.8 0.3 1.4 1.1 1.8 1.8 3.2 4.5 4.5 9.3 5.8 14.5 0.7-5.3 1.1-19.4 10.7-15.7z"/><path fill-rule="evenodd" class="c" d="m392.6 252.2v-36.8"/><path fill-rule="evenodd" class="c" d="m387.8 220.5q-0.1 0.2-0.2 0.4v29.3"/></g></svg>