<svg version="1.2" xmlns="http://www.w3.org/2000/svg" viewBox="0 0 750 500" width="750" height="500"><defs><clipPath clipPathUnits="userSpaceOnUse" id="cp1"><path d="m0 0h750v500h-750z"/></clipPath></defs><style>.a{fill:#e84662;stroke:#2a2b29;stroke-miterlimit:10;stroke-width:2}.b{fill:#57b793;stroke:#2a2b29;stroke-linecap:round;stroke-linejoin:round;stroke-width:2}.c{fill:none;stroke:#2a2b29;stroke-linecap:round;stroke-linejoin:round;stroke-width:2}</style><g clip-path="url(#cp1)"><path class="a" d="m391.3 244.7c-0.1-1.6-0.8-3.3-1.9-4.5-8.5-10.6-13.6-13.6-13.6-13.6l-4.9 13.3q-0.4-0.5-0.9-1c-12-15.2-13.9-13.8-13.9-13.8l-2 18.4c8.8 18.2 23.9 27.6 23.9 27.6 5.1-5.5 9.2-12.1 11.9-19.1 0.9-2.4 1.6-4.8 1.4-7.3z"/><path class="b" d="m374.4 225.8c2.3 0.9 3.7 3.4 3.9 5.9 0.2 2.5-0.5 5-1.4 7.3-2.7 7-6.8 13.6-11.9 19.1-4.3-4.4-7.9-9.3-10.9-14.6-2.3-4.3-4.2-9.1-3.4-13.9 0.2-1.4 0.7-2.7 1.7-3.6 0.9-1 2.5-1.4 3.7-0.9 0.8 0.4 1.3 1.1 1.8 1.8 3.1 4.6 4.4 9.4 5.8 14.6 0.6-5.3 1.1-19.5 10.7-15.7z"/><path fill-rule="evenodd" class="c" d="m382.8 250.1c6.2 4.6 12 9.7 17.5 15.2"/><path fill-rule="evenodd" class="c" d="m380.3 257.2q9 8.7 17.6 17.8"/></g></svg>