<svg version="1.2" xmlns="http://www.w3.org/2000/svg" viewBox="0 0 750 500" width="750" height="500">
	<title>Clip-Path</title>
	<defs>
		<clipPath clipPathUnits="userSpaceOnUse" id="cp1">
			<path d="m0 0h750v500h-750z"/>
		</clipPath>
	</defs>
	<style>
		.s0 { fill: #e84662;stroke: #2a2b29;stroke-miterlimit:10;stroke-width: 2 } 
		.s1 { fill: #f3be48;stroke: #2a2b29;stroke-miterlimit:10;stroke-width: 2 } 
		.s2 { fill: none;stroke: #2a2b29;stroke-linecap: round;stroke-linejoin: round;stroke-width: 2 } 
	</style>
	<g id="Clip-Path" clip-path="url(#cp1)">
		<g>
			<g>
				<path class="s0" d="m357.9 246.7c0.1-1.7 0.8-3.3 1.8-4.5 8.5-10.6 13.7-13.7 13.7-13.7l4.9 13.4q0.4-0.6 0.8-1.1c12.1-15.2 14-13.7 14-13.7l1.9 18.3c-8.7 18.3-23.8 27.7-23.8 27.7-5.1-5.6-9.2-12.1-11.9-19.1-0.9-2.4-1.7-4.9-1.4-7.3z"/>
				<path class="s1" d="m372.8 227.7c-2.3 0.9-3.7 3.5-3.9 6-0.3 2.5 0.5 4.9 1.4 7.3 2.7 7 6.8 13.5 11.9 19.1 4.2-4.4 7.9-9.3 10.8-14.7 2.4-4.2 4.3-9.1 3.5-13.9-0.3-1.3-0.7-2.6-1.7-3.6-1-0.9-2.5-1.4-3.7-0.8-0.8 0.4-1.3 1.1-1.8 1.8-3.1 4.6-4.4 9.4-5.8 14.6-0.6-5.4-1.1-19.5-10.7-15.8z"/>
			</g>
			<path class="s2" d="m368.3 256.5q-6.9 6.7-13.8 13.4"/>
			<path class="s2" d="m367.5 246.1q-7.1 6.8-14.2 13.5"/>
		</g>
	</g>
</svg>