<svg version="1.2" xmlns="http://www.w3.org/2000/svg" viewBox="0 0 750 500" width="750" height="500"><defs><clipPath clipPathUnits="userSpaceOnUse" id="cp1"><path d="m0 0h750v500h-750z"/></clipPath></defs><style>.a{fill:#57b793;stroke:#2a2b29;stroke-linecap:round;stroke-linejoin:round;stroke-width:2}.b{fill:#e84662;stroke:#2a2b29;stroke-miterlimit:10;stroke-width:2}</style><g clip-path="url(#cp1)"><path class="a" d="m354.7 246.9c0.2-1.7 0.8-3.3 1.9-4.5 8.5-10.6 13.7-13.7 13.7-13.7l4.8 13.4q0.4-0.6 0.9-1.1c12.1-15.2 14-13.7 14-13.7l1.9 18.3c-8.7 18.3-23.8 27.7-23.8 27.7-5.2-5.6-9.2-12.1-11.9-19.1-0.9-2.4-1.7-4.9-1.5-7.3z"/><path class="b" d="m371.7 227.9c-2.4 0.9-3.8 3.5-4 6-0.2 2.5 0.6 4.9 1.5 7.3 2.7 7 6.7 13.5 11.9 19.1 4.2-4.4 7.9-9.3 10.8-14.7 2.3-4.2 4.3-9.1 3.4-13.9-0.2-1.3-0.7-2.6-1.6-3.6-1-0.9-2.5-1.4-3.7-0.8-0.8 0.4-1.4 1.1-1.9 1.8-3.1 4.6-4.4 9.4-5.7 14.6-0.7-5.4-1.2-19.5-10.7-15.8z"/></g></svg>