<svg version="1.2" xmlns="http://www.w3.org/2000/svg" viewBox="0 0 750 500" width="750" height="500"><defs><clipPath clipPathUnits="userSpaceOnUse" id="cp1"><path d="m0 0h750v500h-750z"/></clipPath></defs><style>.a{fill:#57b793;stroke:#2a2b29;stroke-linecap:round;stroke-linejoin:round;stroke-width:2.5}.b{fill:#f8f7d9;stroke:#2a2b29;stroke-miterlimit:10;stroke-width:2.5}.c{fill:#e84662;stroke:#2a2b29;stroke-miterlimit:10;stroke-width:2.5}.d{fill:#2a2b29}.e{fill:#f8f7d9}.f{fill:none;stroke:#2a2b29;stroke-linecap:round;stroke-linejoin:round;stroke-width:2.5}.g{fill:#f3be48;stroke:#2a2b29;stroke-miterlimit:10;stroke-width:2.5}.h{fill:none;stroke:#2a2b29;stroke-linecap:round;stroke-miterlimit:10;stroke-width:5}</style><g clip-path="url(#cp1)"><path class="a" d="m440.4 251.7c1 9.4 0.4 18.9-1.8 28.1 3.7 2.1 8.6 1.5 12.7 1 2.1-0.3 12.4-2.1 13-4.8-5 21.6-21.3 39.5-41 49.8-19.6 10.3-42.3 13.7-64.4 13.4-10-0.1-20.2-0.9-29.6-4.2-18.2-6.4-32.2-21.6-40.8-38.8-9.5-18.9-12.8-42.8-1.2-60.4-8.8-6.6-16-15.9-19-26.5-3-10.7-1.7-22.7 4.7-31.8 7.9-11.5 23.5-16.9 36.8-12.9 13.3 4 23.4 17.2 23.7 31.1 8-5.6 17.6-5.9 27.1-6.7 5-0.5 28.5-0.8 30.9 5.3-3.8-9.8-0.4-21.7 7.7-28.3 8.1-6.6 20.2-7.6 29.5-2.8 23.1 11.8 18 41.7 2.2 57.2 5.2 9.7 8.4 20.4 9.5 31.3z"/><path class="b" d="m419.8 254c0.6-8.2-1-16.6-4.6-24-2.3-4.8-5.6-9.4-10.5-11.5-5.7-2.5-12.6-1.1-17.6 2.7-5 3.7-8.2 9.4-10 15.4-1.8 6-2.4 12.3-2.9 18.5z"/><path class="c" d="m427.7 253.2c-0.8 10.6-6.3 21.5-16.1 25.5-2.8 1.1-5.8 1.7-8.9 2-5.1 0.5-10.6 0.2-15.2-2.1-4.6-2.2-9.2-5.9-11.4-10.4-1.2-2.5-3.2-8.5-3.8-13.9z"/><path class="d" d="m413.9 252.8q0.1-3.7-0.2-7.3c-0.2-2.1-0.5-4.3-1.6-6.1-1.1-1.7-3.1-3.1-5.2-2.7-1.7 0.3-3 1.7-3.6 3.3-0.7 1.5-0.8 3.3-0.9 5q-0.2 4 0 8z"/><path class="e" d="m409 243.6c0 0.8-0.2 1.6-0.8 2-0.4 0.3-0.9 0.4-1.4 0.3-0.4-0.1-0.8-0.5-1-1q-0.1-0.3-0.1-0.7 0-0.6 0-1.2c0.1-1.1 0.6-3 2.1-2.8 1.3 0.2 1.2 2.4 1.2 3.4z"/><path class="e" d="m411.5 247.7c-0.1 0.3-0.2 0.6-0.4 0.8-0.3 0.5-1.1 0.5-1.6 0.1-0.4-0.4-0.4-1.1-0.3-1.6 0.1-0.4 0.2-0.8 0.4-1.2 1.2-1.6 2 0.9 1.9 1.9z"/><path class="b" d="m355.5 254c0.5-8.2-1.1-16.6-4.6-24-2.3-4.8-5.7-9.4-10.5-11.5-5.7-2.5-12.7-1.1-17.7 2.7-5 3.7-8.2 9.4-10 15.4-1.8 6-2.3 12.3-2.8 18.5z"/><path class="c" d="m363.4 253.2c-0.9 10.6-6.3 21.5-16.2 25.5-2.8 1.1-5.8 1.7-8.8 2-5.2 0.5-10.6 0.2-15.3-2.1-4.5-2.2-9.1-5.9-11.3-10.4-1.2-2.5-3.2-8.5-3.9-13.9z"/><path class="d" d="m349.5 252.8q0.1-3.7-0.2-7.3c-0.1-2.1-0.4-4.3-1.5-6.1-1.1-1.7-3.2-3.1-5.3-2.7-1.6 0.3-2.9 1.7-3.6 3.3-0.7 1.5-0.8 3.3-0.9 5q-0.1 4 0.1 8z"/><path class="e" d="m344.6 243.6c0 0.8-0.2 1.6-0.8 2-0.3 0.3-0.9 0.4-1.3 0.3-0.5-0.1-0.9-0.5-1-1q-0.1-0.3-0.1-0.7-0.1-0.6 0-1.2c0-1.1 0.6-3 2-2.8 1.4 0.2 1.3 2.4 1.2 3.4z"/><path class="e" d="m347.1 247.7c-0.1 0.3-0.1 0.6-0.3 0.8-0.4 0.5-1.2 0.5-1.6 0.1-0.4-0.4-0.5-1.1-0.4-1.6 0.1-0.4 0.2-0.8 0.4-1.2 1.2-1.6 2 0.9 1.9 1.9z"/><path fill-rule="evenodd" class="f" d="m427.2 257.3h-24.1"/><path fill-rule="evenodd" class="f" d="m362.8 257.3h-30.1"/><path class="g" d="m431 198.7c1.8-3.9 2.6-8.4 1.5-12.5-1.1-4.2-4.2-7.9-8.3-9.1-5-1.3-10.4 1.2-13.8 5-3.5 3.8-5.4 8.8-7.3 13.6q3.3 1.9 6.8 3.3c3.5-4.5 7.6-8.6 12.1-12.1q-1.3 9.1-3.5 18c0 0.4 2.6 2.6 3 2.8 2.4 1.1 1.4 1.1 3.8-0.5 2.4-1.7 4.5-5.9 5.7-8.5z"/><path class="g" d="m309.6 184.7c-6.4-2.9-14.5-2.1-19.6 2.7-5.3 5-6.5 13.3-4.7 20.4 1.5 5.9 5.1 11.5 10.5 14.4 2.3-3.6 5.4-6.7 9.1-9q-3.3-7.3-6.5-14.5 7.2 5.5 14.3 11.1c1.1-0.8 6-5.8 6.6-6.3 2.8-2.4 3.5-2.5 2.3-6.1-1.8-5.4-6.9-10.4-12-12.7z"/><path class="g" d="m464.3 260.5c1.4-2.8 3.8-5.3 6.8-6 3.8-0.9 8 1.2 10 4.6 1.9 3.4 1.7 7.8-0.1 11.3-1.7 3.5-4.9 6.2-8.5 7.9-14.2 6.6-12.2-10-8.2-17.8z"/><path fill-rule="evenodd" class="h" d="m347.4 211.7h-19.8"/><path fill-rule="evenodd" class="h" d="m406.2 210.7h-19.7"/><path fill-rule="evenodd" class="f" d="m411 331c-6.7-11.2-17.4-19.8-29.4-24.9-12.1-5.2-25.3-7-38.4-6.5-3.6 0.1-7.1 0.4-10.6 1.1-5 1.1-9.8 2.9-14.5 4.7"/><path fill-rule="evenodd" class="f" d="m316.8 284.5c-0.3-4.1-3.2-7.8-6.9-9.7-3.6-1.9-8-2.2-12.1-1.5"/><path fill-rule="evenodd" class="f" d="m433.4 275.6c-6.4-0.7-13 3.2-15.5 9.2"/><path fill-rule="evenodd" class="f" d="m302.9 234.2q0 0.4 0 0.9v11.1"/><path fill-rule="evenodd" class="f" d="m298.6 243.5v12.6"/><path fill-rule="evenodd" class="f" d="m474.1 262.5q-1.7 3.4-3.4 6.8"/><path fill-rule="evenodd" class="f" d="m476.4 267.8q-2.3 3.3-5.1 6.2"/><path fill-rule="evenodd" class="f" d="m270.1 244.4c-2.5 15.7-1.2 31.9 3.6 47.1"/></g></svg>