<svg version="1.2" xmlns="http://www.w3.org/2000/svg" viewBox="0 0 750 500" width="750" height="500"><defs><clipPath clipPathUnits="userSpaceOnUse" id="cp1"><path d="m0 0h750v500h-750z"/></clipPath></defs><style>.a{fill:#f3be48;stroke:#2a2b29;stroke-miterlimit:10;stroke-width:2.2}.b{fill:#e84662;stroke:#2a2b29;stroke-miterlimit:10;stroke-width:2.2}.c{fill:none;stroke:#2a2b29;stroke-miterlimit:10;stroke-width:2.2}.d{fill:#f8f7d9}.e{fill:#2a2b29}.f{fill:#57b793}.g{fill:none;stroke:#2a2b29;stroke-linecap:round;stroke-miterlimit:10;stroke-width:2.2}.h{fill:none;stroke:#f8f7d9;stroke-linecap:round;stroke-miterlimit:10;stroke-width:2.2}.i{fill:none;stroke:#2a2b29;stroke-linecap:round;stroke-linejoin:round;stroke-width:2.2}</style><g clip-path="url(#cp1)"><path class="a" d="m455.2 173.9c-11.6 5.6-22.8 11.8-34.7 16.5-8.3 3.2-21.1 6-21.9-6q-1.4-22.7-2.9-45.4c-0.4-6.4-0.9-13-3.9-18.7-3-5.6-9.3-10.1-15.6-8.8-8.1 1.6-11.7 11.1-13.9 19.1q-3.9 14.7-7.9 29.4c-1.4 5.5-2.9 11-6.3 15.5-3.3 4.6-8.9 7.9-14.4 6.8-4-0.7-7.2-3.5-10.3-6.2q-11.5-10.1-23-20.2c-7.6-6.7-16.4-13.8-26.5-12.9-2.3 0.2-4.7 0.9-6.1 2.7-1.2 1.4-1.6 3.4-1.9 5.2-2.7 21 12.6 39.9 23.7 56.2 5.6 8 11.2 18.1 7.1 26.9-2.8 6.2-9.6 9.5-15.7 12.5q-16 7.6-31.2 16.7c-6.9 4.1-14.6 10.1-14 18.2 1.1 12.7 15.4 14.2 25 14.7 14.3 0.7 28.4 1 42.7 0.2 0.6 0 1.2 0 1.7 0.3 0.8 0.7 0.5 2 0.2 2.9-5.9 16.1-12.6 32.1-17.7 48.4-3 9.6-5.7 20.9 0.4 28.8 5.7 7.4 17.2 8.1 25.7 4.1 8.5-4 14.7-11.6 20.6-18.9q13.4-16.7 26.8-33.4c1.1-1.3 2.3-2.7 4-2.7 1.6 0 2.9 1.4 3.9 2.7 14.6 18.6 22.1 42.4 42 56.5 3.2 2.3 6.7 4.3 10.6 4.8 3.9 0.5 8.2-1 10.1-4.4 1.1-1.9 1.3-4.1 1.4-6.3 1.5-24.5-6.4-48.7-5.6-73.2 0.1-2 0.3-4.2 1.8-5.4 1.4-1 3.3-0.9 5-0.7 20.8 2.4 40.3 13.8 61.2 12.8 5.5-0.2 11.4-1.7 14.8-6 2.9-3.9 3.1-9.4 1.4-14-1.7-4.6-5-8.4-8.6-11.7-15.4-14.1-36.5-23.2-54.1-34.2-3.1-1.9-6.5-4.3-7.2-7.9-1.1-4.9 3.3-9.1 7.2-12.3 16.4-13.6 32-28.5 42.8-46.9 1.4-2.5 2.9-5.3 2.5-8.2-0.5-3.9-4.3-6.8-8.2-7.4-3.9-0.6-7.9 0.5-11.6 1.7-6.7 2.3-13.1 5.2-19.4 8.2z"/><path class="b" d="m356.1 222.1c0.9 0.2 1.8 0.4 2.5 1 1 0.7 1.5 1.8 1.8 2.9 1.3 3.8 1.6 7.9 1.9 11.9 0.3 5.3 0.4 10.7-0.9 15.9-1.3 5.2-4.2 10.2-8.8 12.9-4.4 2.6-9.9 2.9-15 2.5-4-0.4-8.1-1.1-11.6-3.1-5.2-3.1-8.4-8.9-10.4-14.6-1.9-5.8-3.3-12.1-3.1-18.2 0.1-5.7 2.8-6.7 8-8.7 11.3-4.3 23.8-5.2 35.6-2.5z"/><path class="b" d="m384.5 250.7c0.6 3 1.3 6.2 3.1 8.7 2 2.8 5.3 4.5 8.7 5.2 3.4 0.8 6.8 0.8 10.3 0.8 3-0.1 6-0.2 8.8-1.2 4.8-1.8 8.2-6.5 9.8-11.4 1.6-4.9 1.6-10.2 1.7-15.4q0-4.9 0.1-9.7c0-1.1 0-2.2-0.6-3-0.5-0.7-1.3-1-2-1.3-9.1-3.9-19.1-5.4-28.9-4.3-5.5 0.6-12.8 1.7-13 8.1-0.2 7.8 0.7 15.8 2 23.5z"/><path fill-rule="evenodd" class="c" d="m362.5 239.1c6.2-3.2 13.7-3.8 20.3-1.6"/><path fill-rule="evenodd" class="c" d="m362 234.6c3.4-3.5 8.9-4.2 13.8-3.9 2.4 0.1 4.9 0.6 6.5 2.2"/><path fill-rule="evenodd" class="c" d="m312.2 236.1c15.6-4.5 33-5.8 49.2-4.3"/><path fill-rule="evenodd" class="c" d="m382.6 229.9c14.6-1.6 29.5-1.3 44.1 0.8"/><path class="d" d="m358.6 236.2l-23.7 14.1 8.2 0.8-15.9 12.3c0 0 3 1.6 7.2 2l22.3-15.8-7.7-1.4 9.6-5.4z"/><path class="d" d="m423 232.6l-23.8 14.1 8.3 0.8-15.9 12.3c0 0 3 1.6 7.2 2l22.3-15.8-7.7-1.4 9.6-5.4z"/><path class="e" d="m357 276.1c4.3-3.9 10.1-6.4 15.9-5.9 4.2 0.3 8.3 2.3 11.5 5.1 3.2 2.8 5.6 6.4 7.5 10.3 1.4 3 2.6 6.3 2.1 9.6-0.6 3.3-3.3 6.5-6.7 6.5-1.1 0-2.3-0.4-3.4-0.8-3.3-1.4-6.4-3.4-9.2-5.6-1.4-1.1-2.9-2.3-4.6-2.5-1.8-0.2-3.5 0.5-4.9 1.5-1.4 1-2.6 2.2-4 3.3-1.8 1.3-3.8 2.2-5.9 2.3-5.4 0.2-7.7-5.3-7.3-10 0.5-4.9 5.5-10.6 9-13.8z"/><path class="f" d="m387.3 305.5c-1.9 0-3.6-0.6-4.8-1.1-3.2-1.3-6.4-3.2-10.2-6.1l-0.1-0.1c-0.9-0.7-2-1.5-2.6-1.6-0.5-0.1-1.4 0.2-2.2 0.8-0.6 0.4-1.2 1-1.9 1.6-0.6 0.5-1.3 1.1-2.1 1.6-2.5 1.9-5.3 3-8 3.1-3.1 0.2-5.7-0.9-7.8-3.1-2.5-2.7-3.8-6.9-3.4-11.1 0.7-6.9 7.4-13.6 10.2-16.2q0 0 0 0c5.5-5 12.3-7.5 18.8-6.9 4.8 0.4 9.7 2.5 13.7 6 3.3 2.9 6.1 6.8 8.4 11.5 1.4 2.9 3.2 7.3 2.4 12-0.9 5.5-5.4 9.6-10.4 9.6q0 0 0 0zm-17.9-16.6q0.6 0 1.2 0.1c2.7 0.4 4.7 1.9 6.3 3.1l0.1 0.1c3.2 2.5 5.8 4.1 8.3 5.1 0.7 0.3 1.4 0.6 2 0.6q0 0 0 0c1.2 0 2.6-1.6 2.9-3.3 0.3-1.9-0.2-4.3-1.7-7.3-1.9-3.8-4.1-6.9-6.6-9.1-2.8-2.5-6.1-4-9.3-4.2-4.4-0.4-9.1 1.4-13 5-3.7 3.3-7.4 8-7.8 11.3-0.2 1.9 0.4 4 1.4 5 0.5 0.6 1.1 0.8 1.9 0.8 1.5-0.1 2.9-0.9 3.8-1.6q0.8-0.6 1.6-1.3c0.8-0.7 1.6-1.4 2.5-2.1 2.1-1.4 4.3-2.2 6.4-2.2z"/><path class="d" d="m365.9 281.9c0 0.2 0 0.4 0.1 0.5 0.2 0.2 0.3 0.2 0.5 0.3q1.6 0.4 3.3 0.3c0.2 0 0.4 0 0.6-0.1 0.3-0.2 0.3-0.6 0.3-0.9q0.2-3.3 0.4-6.5c0-0.1 0-0.2-0.1-0.3 0 0-0.1 0-0.2 0-1.3 0.1-3.8 0.2-4.7 1.3-0.5 0.5-0.2 1.6-0.2 2.3q0 1.5 0 3.1z"/><path class="d" d="m376.9 281.9c0 0.2 0 0.4-0.1 0.5-0.2 0.2-0.3 0.2-0.5 0.3q-1.6 0.4-3.3 0.3c-0.2 0-0.4 0-0.6-0.1-0.3-0.2-0.3-0.6-0.3-0.9q-0.2-3.3-0.4-6.5c0-0.1 0-0.2 0.1-0.3 0 0 0.1 0 0.2 0 1.3 0.1 3.8 0.2 4.7 1.3 0.5 0.5 0.3 1.6 0.2 2.3q0 1.5 0 3.1z"/><path class="f" d="m387.3 306.6c-2.1 0-3.9-0.6-5.2-1.2-3.3-1.3-6.5-3.2-10.4-6.2l-0.2-0.1c-0.6-0.5-1.7-1.4-2.1-1.4-0.1 0-0.6 0.1-1.4 0.6-0.6 0.4-1.2 1-1.8 1.5-0.6 0.6-1.3 1.1-2.1 1.7-2.7 2-5.7 3.2-8.6 3.3q-0.3 0-0.6 0c-3.1 0-5.9-1.2-8.1-3.5-2.8-2.9-4.1-7.4-3.7-11.9 0.8-7.3 7.7-14.2 10.6-16.9 5.2-4.7 11.5-7.3 17.8-7.3q0.9 0 1.8 0.1c5 0.4 10.1 2.6 14.3 6.3 3.4 3 6.4 7 8.7 11.8 1.5 3.1 3.3 7.6 2.5 12.6-1 6.1-5.9 10.6-11.5 10.6q0 0 0 0zm-17.9-18.8q0.7 0 1.3 0.1c3 0.4 5.2 2.1 6.9 3.4l0.1 0.1c3.1 2.4 5.6 3.9 8.1 4.9 0.2 0.1 1.1 0.5 1.5 0.5 0.6 0 1.6-1.1 1.8-2.4 0.3-1.7-0.2-3.8-1.6-6.7-1.8-3.6-3.9-6.6-6.4-8.7-2.6-2.3-5.7-3.7-8.6-3.9q-0.5-0.1-1-0.1c-3.8 0-7.9 1.8-11.2 4.8-4.1 3.7-7.1 8.1-7.4 10.6-0.1 1.6 0.3 3.4 1.1 4.2 0.2 0.3 0.5 0.4 0.9 0.4h0.2c1.1-0.1 2.3-0.8 3.1-1.4q0.8-0.5 1.6-1.3c0.8-0.7 1.6-1.4 2.6-2.1 2.3-1.5 4.7-2.4 7-2.4z"/><path class="e" d="m371.5 264.1c-6.6 0-13.1 2.7-18.5 7.6q-0.1 0-0.1 0c-3 2.8-10.1 10-10.9 17.6-0.4 4.8 1 9.6 4 12.8 2.4 2.5 5.4 3.8 8.9 3.8q0.3 0 0.6 0c3.2-0.1 6.4-1.3 9.3-3.5 0.8-0.6 1.4-1.2 2.1-1.8 0.6-0.5 1.2-1 1.7-1.4q0.5-0.3 0.7-0.4c0.5 0.3 1.2 0.8 1.6 1.1l0.1 0.1c4 3.1 7.2 5.1 10.6 6.4 1.5 0.6 3.4 1.3 5.7 1.3 6.1 0 11.5-4.9 12.6-11.5 0.9-5.3-1.1-10.1-2.6-13.2-2.4-5-5.4-9.1-9-12.2-4.3-3.8-9.6-6.2-14.9-6.6q-1-0.1-1.9-0.1zm0 2.2q0.8 0 1.7 0.1c4.8 0.4 9.7 2.5 13.7 6 3.3 2.9 6.1 6.8 8.4 11.5 1.4 2.9 3.2 7.3 2.4 12-0.9 5.5-5.4 9.6-10.4 9.6q0 0 0 0c-1.9 0-3.6-0.6-4.8-1.1-3.2-1.3-6.4-3.2-10.2-6.1l-0.1-0.1c-0.9-0.7-2-1.5-2.6-1.6q-0.1 0-0.2 0c-0.5 0-1.2 0.3-2 0.8-0.6 0.4-1.3 1-1.9 1.6-0.6 0.5-1.3 1.1-2.1 1.6-2.5 1.9-5.3 3-8 3.1q-0.2 0-0.5 0c-2.9 0-5.4-1.1-7.3-3.1-2.5-2.7-3.8-6.9-3.4-11.1 0.7-6.9 7.4-13.6 10.2-16.2q0 0 0 0c5-4.5 11.1-7 17.1-7zm-16.6 29.8q0.1 0 0.2 0c1.5-0.1 2.9-0.9 3.8-1.6q0.8-0.6 1.6-1.3c0.8-0.7 1.6-1.4 2.5-2.1 2.1-1.4 4.3-2.2 6.4-2.2q0.6 0 1.2 0.1c2.7 0.4 4.7 1.9 6.3 3.1l0.1 0.1c3.2 2.5 5.8 4.1 8.3 5.1 0.7 0.3 1.4 0.6 2 0.6q0 0 0 0c1.2 0 2.6-1.6 2.9-3.3 0.3-1.9-0.2-4.3-1.8-7.3-1.8-3.8-4-6.9-6.5-9.1-2.8-2.5-6.1-4-9.3-4.2q-0.6-0.1-1.1-0.1c-4.1 0-8.3 1.8-11.9 5.1-3.7 3.3-7.4 8-7.8 11.3-0.2 1.9 0.4 4 1.4 5 0.4 0.5 1 0.8 1.7 0.8zm-0.1-2.2q0 0 0-0.1c-0.5-0.5-0.9-1.9-0.8-3.3 0.2-2.3 3.2-6.4 7-9.9 3.2-2.8 7-4.5 10.5-4.5q0.4 0 0.9 0.1c2.7 0.2 5.6 1.5 8 3.6 2.3 2.1 4.4 4.9 6.1 8.4 1.2 2.6 1.8 4.6 1.5 6.1-0.1 0.6-0.5 1.2-0.8 1.4-0.1-0.1-0.4-0.2-1-0.4-2.4-1-4.8-2.4-7.8-4.8l-0.2-0.1c-1.7-1.3-4-3.1-7.3-3.6q-0.8-0.1-1.5-0.1c-2.5 0-5.2 0.9-7.6 2.6-1.1 0.8-1.9 1.5-2.7 2.2q-0.9 0.7-1.5 1.3c-1 0.7-1.9 1.1-2.6 1.1h-0.1q-0.1 0-0.1 0z"/><path fill-rule="evenodd" class="g" d="m301.8 261c-0.1 11.2 3.7 22.4 10.5 31.4 6.2 8.2 15 14.4 24.5 18.5 9.5 4.1 19.9 6.1 30.2 6.8 5.8 0.5 11.7 0.5 17.4-0.4 15.7-2.5 30-12.1 38.9-25.2 9-13.2 12.7-29.6 11.2-45.4"/><path fill-rule="evenodd" class="g" d="m307.8 225.2c2.9-8.1 8.5-15 15.3-20.3 6.7-5.3 14.5-9.1 22.5-12.3"/><path fill-rule="evenodd" class="g" d="m410 203.3c6.8 3.3 11.3 9.9 15.5 16.2"/><path fill-rule="evenodd" class="g" d="m387.9 196.7c3.6 0.3 7.1 1.5 10.2 3.4"/><path fill-rule="evenodd" class="g" d="m327.9 217.8c5.8-3.6 12.6-5.6 19.4-5.7"/><path fill-rule="evenodd" class="g" d="m392.2 211.8c6-0.1 12.1 1 17.7 3.1"/><path fill-rule="evenodd" class="h" d="m349.6 297.2c0.7 1.4 2.3 2.2 3.8 2.4 1.6 0.1 3.2-0.3 4.6-1"/><path fill-rule="evenodd" class="h" d="m361.2 296.8q1.6-0.8 3.2-1.7"/><path fill-rule="evenodd" class="h" d="m387.2 278.5c1.4 1.4 3.1 3.3 3.9 5.3"/><path fill-rule="evenodd" class="h" d="m392.2 286.8q0.3 1.2 0.6 2.4"/><path fill-rule="evenodd" class="i" d="m423.9 281.6q4.3 3.2 8.6 6.4"/><path fill-rule="evenodd" class="i" d="m424.9 274.3q6.3 4.8 12.5 9.6"/><path fill-rule="evenodd" class="i" d="m317.4 199.2q4.3 4.4 8.7 8.7"/><path fill-rule="evenodd" class="i" d="m324.1 197.5q2.7 3 5.4 6"/><path fill-rule="evenodd" class="i" d="m280.6 173c-6.5 8.6-14.2 16.3-22.8 22.9"/><path fill-rule="evenodd" class="i" d="m284.7 186.4q-12 12.5-23.9 25.1"/></g></svg>