<svg version="1.2" xmlns="http://www.w3.org/2000/svg" viewBox="0 0 750 500" width="750" height="500"><defs><clipPath clipPathUnits="userSpaceOnUse" id="cp1"><path d="m0 0h750v500h-750z"/></clipPath></defs><style>.a{fill:#f3be48;stroke:#2a2b29;stroke-miterlimit:10;stroke-width:2.4}.b{fill:#57b793;stroke:#2a2b29;stroke-linecap:round;stroke-linejoin:round;stroke-width:2.4}.c{fill:none;stroke:#2a2b29;stroke-linecap:round;stroke-linejoin:round;stroke-width:2.4}</style><g clip-path="url(#cp1)"><path class="a" d="m390.6 187.8c-3.1 2.9-6.3 6.5-7.6 10.6-1.4 4.3-0.3 10.6 0.8 14.8 1.1 4 3.4 7.7 6.9 9.9 1.6 1 3.7 1.7 4.7 3.4 1.3 2.4-0.1 5.4-1.4 7.8-2.9 4.9-5.4 9.3-7 14.8-2.4 7.8-4.5 15.6-7 23.4-2 6.3 4.9 10.2 10.3 12 12.3 4.2 26.9 3.3 37.1-4.7 2.8-2.3 5.2-5 7.3-8 5.6-8 8.7-17.9 8-27.6-0.6-6.9-3-13.6-7.2-19.2-4-5.3-11.5-9.2-11.3-16.8 0-2.4 1.5-4.8 3.6-6 2.1-1.1 4.9-1 7 0.2 0.8-2.4-0.2-5-1.4-7.3-2-4-4.7-7.6-7.7-10.9-2.7-2.9-7.1-7.8-11-8.9-3.6-1-9.2 2-12.3 3.7-4.4 2.3-8.3 5.3-11.8 8.8z"/><path class="b" d="m415.9 174.2c-7.3 1.5-14.1 6.2-17.6 12.9-3.5 6.6-3.5 15.1 0.6 21.5 2.2 3.5 5.5 6.2 7.8 9.6 3.3 4.7 4.6 10.4 5.5 16.1 0.8 5.3 1.2 11-1 15.8-2.3 4.9-8 8.6-13.1 6.8q-1.9 12.3-2.8 24.8c-0.1 0.7-0.1 1.5 0.2 2.2 0.4 0.7 1 1.1 1.6 1.4 6.1 3.5 13.4 3.9 20.3 3.5 12-0.7 24.4-3.9 32.9-12.4 5.8-5.8 9.2-13.7 10.2-21.8 1.1-8.1-0.2-16.4-2.9-24.1-1.2-3.5-2.7-6.8-4.9-9.8-2.5-3.4-5.8-6.1-9.4-8.4-2-1.4-4.1-2.7-6.5-3.3-1.8-0.6-3.7-0.7-5.6-0.9-3-0.2-6.4-0.7-8-3.2-2-2.9 0.2-7.5 3.7-8.2 3.5-0.8 7.1 1.9 8.1 5.3 4.8-4 7.8-10.1 7.9-16.4 0.1-11.3-18.7-13.1-27-11.4z"/><path class="a" d="m341.5 204.9c-0.5 0.5-1.1 1-1.3 1.7-0.3 0.8-0.1 1.6 0.1 2.4 8.9 36.3 11.8 73.8 15.9 110.9 0.1 0.8 0.2 1.6 0.6 2.3 0.6 0.8 1.7 1.1 2.7 1.4 3.5 1 7 3.1 10.4 2.6 1.5-9.2 5.9-17.3 9.1-26 3.2-8.8 5.5-18.4 3-27.4 7.4 0.3 17.7-2.5 23.3-7.6 1.6-1.4 2.8-3.1 4.1-4.9 2.9-3.9 6-8.5 5.4-13.4-10.5-0.8-21.8-0.8-29.8-8.5-3.2-3.1-4.7-8.4-2.2-12 0.5-0.8 1.2-1.5 2.1-1.8 0.8-0.3 1.6-0.3 2.5-0.2 3.6 0.4 6.6 2.8 9.4 5.1 2.7-4.9 1.3-11.5-2.8-15.4-4.1-3.9-10.3-5.1-15.8-3.7-2.8 0.6-5.7 1.9-8.4 0.8-1.3-0.5-2.3-1.5-3.3-2.5q-2.4-2.8-4.4-5.9c-1.3-1.9-2.4-3.9-4.2-5.3-6.1-5.1-12.2 3.7-16.4 7.4z"/><path class="b" d="m415.9 224.3c-2.3-8.4-6.1-16.8-12.9-22.2-4.9-4-10.1-5.4-16.3-4.6-2.9 0.4-5.8 1.2-8.4 2.5-0.9 0.4-6.6 3.1-6.5 4.2-0.5-4.3-1.5-8.7-2.9-12.9-5.4 0.5-10.6 1.9-15.5 4-0.5 0.2-1.1 0.4-1.4 0.9-0.3 0.5-0.2 1.2-0.1 1.9 5 31.3 9.9 62.5 13.9 94q2.2 17 4.1 34.1 10.8-1.4 21.4-3.9c-1.2-19.8-3.9-39.4-8-58.8 4.8 2.3 13.5 1 18.6-0.4 5.9-1.6 10.9-6.3 13.5-11.8 3.8-8.4 2.9-18.1 0.5-27zm-21.7 5c-0.3 1.3-0.9 2.6-2 3.3-1.1 0.7-2.4 0.6-3.6 0.1-2-0.8-3.4-2.7-4.1-4.8-0.9-2.8-1.8-10 0.9-12.2 3.1-2.6 7.6 1.1 8.8 4.1 1.3 3 1 6.4 0 9.5z"/><path class="a" d="m275.7 272.4c1.3 6.3 3.3 12.4 6 18.2 3 6.5 7 12.7 12.6 17.2 3.7 2.9 8 5 12.6 6.4 17.7 5.3 38.4-1.3 49.9-15.8 11.6-14.5 13.5-35.9 5.1-52.4-5.8-11.4-15.8-20.1-26.5-27.1-4.2-2.7-9.7-4.1-14.6-4.7-0.6-0.1-1.2-0.2-1.7 0-0.6 0.2-1.1 0.7-1.5 1.2q-2.9 3.2-5.1 6.9c-0.2 0.3-0.4 0.7-0.4 1.1-0.1 0.6 0.1 1.1 0.4 1.6q2.3 5 3.6 10.4c0.7 2.9 0.8 5.9 1.2 8.9 1.1 7.2 1.3 14.5 0.8 21.8q-8-12.1-16-24.1c-2.6-3.9-7.6-14.4-12.8-15.2-5.2-0.7-9.2 8.6-11 12.6-4.7 10.2-4.9 22.2-2.6 33z"/><path class="b" d="m306.6 222q0.8 4.7 1.6 9.3c0.5 3.1 1.1 6.3 2.4 9.2 1.4 2.8 3.8 5.3 6.9 6.2 9.8 2.6 11.4-10.5 9.7-17-1.5-5.7-5.1-10.7-9-15.2q9.7-4.2 19.9-7.3c1.8-0.6 3.9-1.1 5.7-0.4 1.4 0.6 2.4 1.8 3.4 3 8.8 11.2 17.8 22.7 22.4 36.3 4.6 13.5 4.2 29.6-4.7 40.8-14.2 17.9-44.9 23.3-60.9 5.1-2.2-2.5-4-5.3-5.7-8.2-9.3-16.1-13.8-34.9-13-53.4 0.1-0.9 0.1-1.9 0.7-2.6 0.4-0.7 1.1-1 1.8-1.3 5.9-2.7 12.3-4.5 18.7-5.1q0.1 0.3 0.1 0.6z"/><path fill-rule="evenodd" class="c" d="m306.5 282.4q-12.2 12.1-24.5 24.2"/><path fill-rule="evenodd" class="c" d="m310.8 290.9q-14.7 17.9-30.2 35.1"/><path fill-rule="evenodd" class="c" d="m447.4 237.8c7.5 3.1 14.8 6.7 21.8 10.8"/><path fill-rule="evenodd" class="c" d="m448.1 246.9c10.2 6.3 19.7 13.6 28.4 21.7"/></g></svg>