<?xml version="1.0" standalone="no"?>
<!DOCTYPE svg PUBLIC "-//W3C//DTD SVG 20010904//EN"
 "http://www.w3.org/TR/2001/REC-SVG-20010904/DTD/svg10.dtd">
<svg version="1.0" xmlns="http://www.w3.org/2000/svg"
 width="1024.000000pt" height="1536.000000pt" viewBox="0 0 1024.000000 1536.000000"
 preserveAspectRatio="xMidYMid meet">

<g transform="translate(0.000000,1536.000000) scale(0.100000,-0.100000)"
fill="#000000" stroke="none">
<path d="M5008 14315 c-73 -10 -161 -34 -354 -95 -17 -6 -46 -10 -64 -10 -19
0 -61 -5 -94 -11 -261 -46 -315 -63 -521 -164 -139 -68 -433 -243 -481 -286
-11 -11 -24 -19 -28 -19 -7 0 -395 -287 -406 -301 -3 -3 -23 -19 -45 -35 -101
-72 -240 -190 -385 -324 -58 -54 -125 -114 -150 -135 -92 -76 -446 -433 -515
-520 -22 -27 -42 -52 -45 -55 -12 -12 -159 -199 -200 -256 -213 -293 -260
-360 -368 -529 -261 -409 -426 -756 -477 -1005 -46 -223 24 -453 190 -629 72
-76 260 -213 349 -255 66 -30 229 -86 321 -110 141 -36 315 -74 395 -86 30 -5
98 -16 150 -25 113 -19 184 -28 560 -74 96 -11 200 -25 231 -31 30 -5 76 -10
102 -10 69 0 73 -15 58 -188 -6 -75 -16 -229 -21 -342 -6 -113 -15 -299 -21
-415 -6 -115 -12 -462 -15 -770 -3 -308 -7 -570 -9 -581 -5 -23 -4 -22 -145
-43 -145 -22 -227 -56 -357 -147 -73 -52 -220 -208 -284 -303 -188 -278 -260
-805 -185 -1356 15 -110 30 -230 33 -267 l6 -68 -704 -2 -704 -3 -50 -32 c-53
-34 -85 -77 -85 -113 0 -33 38 -94 70 -113 25 -15 97 -17 774 -17 700 0 746
-1 755 -17 8 -17 59 -259 100 -483 11 -58 43 -213 71 -345 28 -132 64 -307 81
-390 16 -82 41 -202 54 -265 82 -392 99 -495 99 -615 1 -154 -8 -173 -146
-292 -281 -243 -352 -309 -404 -375 -103 -133 -144 -240 -144 -378 0 -80 3
-93 36 -160 42 -83 136 -185 201 -219 119 -60 234 -81 447 -81 95 0 197 4 227
9 30 5 110 17 179 26 69 9 139 20 155 25 17 5 66 16 110 26 88 19 193 49 240
69 17 7 62 23 100 35 116 37 309 134 420 212 6 4 47 39 93 78 124 107 188 201
242 355 80 230 97 480 60 915 -11 129 -27 296 -35 370 -8 74 -31 297 -50 495
-19 198 -37 371 -40 385 -4 24 -51 491 -57 575 l-3 40 963 3 c858 2 963 0 968
-13 4 -9 -1 -91 -10 -183 -9 -92 -21 -214 -27 -272 -6 -58 -19 -177 -29 -265
-32 -271 -48 -415 -60 -540 -6 -66 -27 -244 -45 -395 -68 -542 -77 -710 -50
-930 24 -191 54 -285 131 -400 122 -184 318 -324 639 -458 188 -78 372 -128
562 -153 178 -23 540 -2 683 41 56 16 162 71 210 108 97 76 127 131 137 258
16 199 -94 372 -402 633 -112 95 -123 105 -162 161 -37 52 -52 109 -53 200 0
83 17 228 36 303 23 92 113 494 130 582 9 44 42 188 74 320 91 374 147 614
188 815 l39 185 609 5 c662 5 634 3 669 62 41 70 10 139 -83 185 l-57 28 -547
3 c-485 2 -547 4 -552 18 -3 9 1 62 9 117 21 143 42 345 55 529 11 159 3 353
-21 493 -17 103 -67 237 -125 339 -66 115 -67 111 51 151 44 15 100 35 125 43
47 16 171 80 180 92 3 4 11 9 17 11 7 2 39 26 70 53 159 137 254 304 309 546
21 93 30 410 14 540 -40 348 -187 914 -372 1435 -184 518 -322 809 -564 1185
-230 358 -403 505 -772 654 -59 24 -125 49 -147 55 -22 7 -49 16 -60 21 -19 9
-150 43 -230 60 -22 5 -98 19 -170 31 -71 11 -134 25 -140 30 -7 7 -2 23 13
47 67 108 162 345 201 499 56 223 84 459 84 703 -1 442 -100 871 -253 1095
-15 22 -42 69 -60 105 -24 50 -59 92 -149 181 -101 99 -274 239 -296 239 -4 0
-19 8 -33 19 -92 63 -210 109 -368 143 -92 19 -143 23 -334 24 -141 1 -257 -3
-312 -11z m524 -301 c107 -17 220 -50 291 -85 60 -30 262 -186 292 -224 13
-18 30 -39 38 -47 23 -24 84 -113 118 -173 89 -154 148 -329 191 -564 19 -102
22 -151 22 -401 0 -402 -31 -607 -135 -883 -72 -192 -135 -303 -266 -468 -150
-188 -337 -312 -518 -345 -22 -4 -62 -17 -90 -29 -105 -46 -181 -57 -307 -44
-288 30 -514 155 -724 404 -163 192 -293 489 -343 782 -23 137 -37 397 -27
495 8 74 11 78 106 158 145 124 434 405 518 505 23 28 54 65 69 83 77 92 151
251 180 387 19 87 12 173 -22 279 -14 43 -25 91 -25 105 0 29 3 30 145 64 86
21 357 21 487 1z m-942 -150 c56 -32 70 -72 70 -200 0 -192 -42 -269 -270
-494 -95 -94 -134 -130 -220 -201 -14 -11 -39 -33 -55 -47 -83 -74 -175 -152
-293 -250 -264 -220 -416 -365 -625 -597 -50 -55 -125 -138 -167 -185 -69 -76
-270 -326 -327 -407 -115 -162 -159 -239 -232 -406 -11 -27 -37 -71 -56 -97
-46 -62 -65 -110 -65 -160 0 -69 34 -117 99 -138 46 -16 125 8 179 53 28 25
50 35 73 35 33 0 122 14 189 30 19 5 76 14 125 20 158 21 219 30 280 40 78 13
280 39 375 49 41 5 149 18 240 29 91 12 197 22 235 22 l70 0 50 -57 c148 -173
390 -345 565 -402 233 -77 611 -66 872 25 168 58 303 155 537 383 75 73 75 73
121 68 25 -3 92 -11 150 -17 58 -6 121 -15 140 -21 19 -5 49 -9 67 -9 18 0 42
-4 55 -9 13 -5 48 -14 78 -21 63 -14 156 -39 185 -50 11 -4 36 -14 55 -20 102
-37 296 -132 336 -166 216 -179 347 -345 517 -655 290 -527 588 -1383 698
-1999 79 -447 56 -741 -74 -942 -76 -117 -193 -208 -335 -259 -31 -11 -66 -24
-77 -29 -27 -11 -105 -34 -191 -56 l-72 -18 -73 31 c-95 40 -100 42 -189 59
-88 16 -271 18 -356 4 -125 -22 -306 -74 -401 -116 -18 -8 -50 -21 -70 -30
-95 -41 -209 -101 -297 -158 -46 -30 -364 -280 -376 -296 -9 -11 -232 -193
-292 -238 -32 -23 -70 -47 -85 -53 -15 -6 -39 -16 -53 -22 -194 -78 -281 -76
-339 8 -30 45 -41 89 -41 171 0 228 107 439 333 653 37 36 91 81 120 102 28
21 63 47 77 57 53 40 191 106 300 142 36 12 80 29 98 36 17 8 47 20 65 28 17
8 43 17 57 21 24 7 52 18 128 51 18 8 36 14 41 14 5 0 26 8 47 17 47 20 215
80 264 95 19 5 39 14 45 19 5 5 18 9 30 9 12 0 25 4 30 9 6 5 37 16 70 26 33
9 65 20 70 25 6 4 23 10 39 14 16 4 61 22 100 40 39 19 89 39 111 46 22 7 59
21 81 31 23 10 54 21 68 25 14 3 26 10 26 15 0 5 6 9 13 9 7 0 32 16 54 35 49
41 73 103 73 185 0 72 -16 131 -99 375 -38 110 -114 337 -169 505 -162 495
-250 742 -275 768 -61 65 -145 69 -205 9 -47 -47 -55 -115 -22 -197 91 -225
184 -563 225 -810 30 -186 63 -683 47 -703 -6 -7 -28 -18 -49 -25 -21 -8 -47
-17 -58 -22 -11 -4 -42 -16 -70 -25 -27 -9 -90 -32 -140 -50 -49 -18 -124 -45
-165 -60 -41 -15 -84 -30 -95 -35 -11 -5 -123 -48 -250 -96 -262 -100 -509
-221 -670 -330 -141 -95 -169 -117 -290 -239 -161 -160 -248 -309 -308 -525
-30 -109 -29 -300 2 -430 45 -187 120 -297 228 -334 95 -33 275 -16 390 35 24
10 46 19 49 19 47 0 374 226 566 392 15 13 36 30 47 38 11 9 52 45 92 80 40
36 93 80 118 98 51 37 357 192 378 192 7 0 13 4 13 9 0 5 10 11 23 14 12 3 54
17 92 32 106 41 303 85 380 85 39 0 94 -9 233 -37 65 -13 78 -20 131 -69 120
-111 228 -302 250 -444 17 -109 22 -292 12 -407 -6 -59 -15 -175 -21 -258 -10
-131 -29 -307 -71 -650 -6 -49 -26 -160 -44 -245 -35 -162 -99 -473 -134 -645
-67 -333 -109 -507 -232 -970 l-53 -200 0 -195 c0 -213 7 -250 70 -365 28 -51
222 -252 324 -335 177 -145 234 -255 182 -356 -37 -72 -110 -95 -374 -114
-218 -16 -479 10 -593 60 -11 5 -54 20 -95 35 -237 84 -421 183 -543 294 -67
61 -126 170 -155 286 -51 202 -53 346 -12 666 16 129 34 299 40 379 6 80 15
176 21 214 5 38 25 207 44 375 19 168 41 358 49 421 8 63 24 203 36 310 11
107 27 249 35 315 8 66 24 206 35 310 12 105 30 255 41 334 10 79 19 182 19
229 l0 84 -39 39 c-33 33 -45 39 -83 39 -65 0 -120 -43 -138 -109 -14 -53 -40
-241 -64 -461 l-21 -195 -1002 -3 -1003 -2 -5 22 c-2 13 -9 79 -15 148 -20
235 -42 404 -56 432 -33 64 -127 87 -192 48 -52 -32 -65 -76 -57 -195 8 -119
28 -312 55 -525 11 -85 29 -247 40 -360 11 -113 29 -281 40 -375 11 -93 24
-219 30 -280 21 -230 50 -525 65 -665 31 -300 37 -392 42 -665 9 -461 -13
-572 -143 -728 -31 -37 -59 -67 -62 -67 -4 0 -18 -10 -32 -23 -62 -55 -233
-151 -380 -212 -86 -35 -300 -105 -323 -105 -9 0 -25 -4 -35 -9 -9 -5 -82 -21
-161 -36 -131 -25 -164 -27 -363 -26 -121 0 -234 5 -252 10 -17 6 -54 17 -82
26 -118 36 -155 149 -88 269 31 55 136 165 264 276 47 40 134 122 193 182 96
96 113 118 155 205 l47 98 0 120 c0 125 1 120 -115 720 -22 110 -48 254 -60
320 -22 132 -69 365 -154 760 -124 577 -195 1071 -203 1427 -6 222 -5 229 19
310 14 46 33 117 43 158 37 159 123 315 235 428 156 157 300 207 527 182 109
-11 124 -14 243 -46 239 -63 391 -138 552 -272 64 -53 135 -121 158 -150 86
-110 189 -108 261 6 35 56 39 133 10 198 -19 41 -16 39 -300 236 -66 46 -253
143 -321 168 -19 6 -44 16 -55 21 -26 11 -150 49 -195 60 -19 4 -62 14 -95 21
l-60 14 -3 99 c-2 55 2 343 7 640 11 516 23 812 56 1390 13 230 13 267 0 311
-14 48 -65 109 -110 132 -71 35 -299 82 -404 82 -29 0 -70 4 -90 9 -20 5 -108
17 -196 26 -88 9 -171 18 -185 21 -14 3 -56 9 -95 14 -229 31 -496 79 -600
110 -207 60 -310 105 -419 180 -166 115 -260 245 -272 378 -13 140 33 296 171
577 129 263 191 366 439 735 17 25 56 80 88 122 32 42 73 96 91 121 53 74 210
280 237 312 26 31 201 215 280 295 161 162 315 302 445 405 83 65 157 126 166
134 41 40 324 249 499 368 69 47 317 204 363 230 47 26 301 150 332 162 94 37
114 41 200 38 69 -2 99 -8 125 -23z m-817 -1699 c20 -159 50 -357 63 -415 23
-105 81 -264 140 -384 30 -61 53 -120 52 -131 -3 -18 -13 -21 -88 -27 -102 -8
-338 -34 -435 -48 -38 -6 -104 -15 -147 -19 -42 -5 -107 -14 -145 -20 -37 -6
-84 -13 -103 -16 -97 -16 -152 -25 -225 -38 -44 -8 -84 -13 -89 -10 -14 9 2
63 35 117 39 63 234 324 323 431 163 196 212 251 390 433 114 115 196 192 205
190 11 -2 18 -21 24 -63z"/>
</g>
</svg>
